<?xml version="1.0" standalone="no"?>
<!DOCTYPE svg PUBLIC "-//W3C//DTD SVG 20010904//EN"
 "http://www.w3.org/TR/2001/REC-SVG-20010904/DTD/svg10.dtd">
<svg version="1.0" xmlns="http://www.w3.org/2000/svg"
 width="260.000000pt" height="260.000000pt" viewBox="0 0 260.000000 260.000000"
 preserveAspectRatio="xMidYMid meet">
<metadata>
Created by potrace 1.14, written by Peter Selinger 2001-2017
</metadata>
<g transform="translate(0.000000,260.000000) scale(0.100000,-0.100000)"
fill="#000000" stroke="none">
<path d="M0 1300 l0 -1300 1300 0 1300 0 0 1300 0 1300 -1300 0 -1300 0 0
-1300z m2020 548 c129 -64 239 -138 327 -221 l73 -70 0 172 0 171 60 0 60 0 0
-590 0 -590 -60 0 -60 0 0 344 0 343 -78 79 c-43 44 -112 103 -154 132 -78 53
-220 126 -270 138 l-28 6 0 -521 0 -521 -60 0 -60 0 0 591 1 591 77 -4 c68 -3
89 -9 172 -50z m-1030 2 l0 -40 -172 0 c-112 0 -197 -5 -241 -15 -281 -59
-463 -326 -406 -597 26 -122 115 -244 227 -312 107 -63 179 -81 335 -81 l138
0 0 305 0 305 -113 5 -113 5 0 50 0 50 173 3 172 2 -2 -407 -3 -408 -150 -3
c-262 -5 -403 28 -537 127 -288 214 -320 616 -68 870 71 73 174 133 275 162
48 14 102 18 273 18 l212 1 0 -40z m710 -10 l0 -50 -247 -2 -248 -3 -3 -127
-3 -128 251 0 250 0 0 -55 0 -55 -250 0 -251 0 3 -274 3 -274 24 -26 24 -26
219 0 218 0 0 -50 0 -50 -235 0 c-255 0 -265 2 -317 57 -55 57 -58 79 -58 373
l0 270 -30 0 c-30 0 -30 1 -30 55 0 54 0 55 30 55 l30 0 0 180 0 180 310 0
310 0 0 -50z"/>
</g>
</svg>
